<?xml version="1.0" encoding="utf-8"?>
<!-- Generator: Adobe Illustrator 18.1.0, SVG Export Plug-In . SVG Version: 6.00 Build 0)  -->
<!DOCTYPE svg PUBLIC "-//W3C//DTD SVG 1.1//EN" "http://www.w3.org/Graphics/SVG/1.1/DTD/svg11.dtd">
<svg version="1.1" id="Layer_1" xmlns="http://www.w3.org/2000/svg" xmlns:xlink="http://www.w3.org/1999/xlink" x="0px" y="0px"
	 viewBox="0 0 176 268.5" enable-background="new 0 0 176 268.5" xml:space="preserve">
<g>
	<g>
		<path fill="#F4F4F4" d="M158.8,0c4.8,0,8.9,1.7,12.2,5.1c3.3,3.4,5,7.5,5,12.3c0,4.7-1.7,8.7-5,12.1c-3.3,3.4-7.4,5.1-12.2,5.1
			s-8.9-1.7-12.2-5.1c-3.3-3.4-5-7.4-5-12.1c0-4.8,1.7-8.9,5-12.3C150,1.7,154,0,158.8,0z"/>
	</g>
	<path fill="#F4F4F4" d="M0,229.4v1h130.9v-1c0.1,0,0.1,0,0.1,0V0h-16.2c0,0-24.8,20-49.4,40.9C40.9,20,16.2,0,16.2,0H0"/>
	<path fill="#202737" d="M42.2,185.8c3.2,3.6,4.8,7.8,4.8,12.6c0,4.9-1.7,9.2-5.1,12.8c-3.4,3.7-7.8,5.5-13.2,5.5
		c-5.4,0-9.7-1.8-13.2-5.5c-3.4-3.7-5.1-7.9-5.1-12.8c0-4.9,1.6-9.1,4.8-12.7c3.6-3.9,8-5.9,13.4-5.9
		C34.2,179.9,38.7,181.9,42.2,185.8z"/>
	<path fill="#7B838C" d="M42.2,148.9c3.2,3.6,4.8,7.8,4.8,12.6c0,4.9-1.7,9.2-5.1,12.8c-3.4,3.7-7.8,5.5-13.2,5.5
		c-5.4,0-9.7-1.8-13.2-5.5c-3.4-3.7-5.1-7.9-5.1-12.8c0-4.9,1.6-9.1,4.8-12.7c3.6-3.9,8-5.9,13.4-5.9C34.2,143,38.7,145,42.2,148.9z
		"/>
	<path fill="#7B838C" d="M78.8,185.8c3.2,3.6,4.8,7.8,4.8,12.6c0,4.9-1.7,9.2-5.1,12.8c-3.4,3.7-7.8,5.5-13.2,5.5
		c-5.4,0-9.7-1.8-13.2-5.5c-3.4-3.7-5.1-7.9-5.1-12.8c0-4.9,1.6-9.1,4.8-12.7c3.6-3.9,8-5.9,13.4-5.9
		C70.8,179.9,75.3,181.9,78.8,185.8z"/>
	<path fill="#AEB5BF" d="M42.2,112c3.2,3.6,4.8,7.8,4.8,12.6c0,4.9-1.7,9.2-5.1,12.8c-3.4,3.7-7.8,5.5-13.2,5.5
		c-5.4,0-9.7-1.8-13.2-5.5c-3.4-3.7-5.1-7.9-5.1-12.8c0-4.9,1.6-9.1,4.8-12.7c3.6-3.9,8-5.9,13.4-5.9
		C34.2,106.1,38.7,108.1,42.2,112z"/>
	<path fill="#AEB5BF" d="M115.4,185.8c3.2,3.6,4.8,7.8,4.8,12.6c0,4.9-1.7,9.2-5.1,12.8c-3.4,3.7-7.8,5.5-13.2,5.5
		c-5.4,0-9.7-1.8-13.2-5.5c-3.4-3.7-5.1-7.9-5.1-12.8c0-4.9,1.6-9.1,4.8-12.7c3.6-3.9,8-5.9,13.4-5.9
		C107.4,179.9,111.9,181.9,115.4,185.8z"/>
	<text transform="matrix(1 0 0 1 -2.0018 264.0591)" fill="#FFFFFF" font-family="'CenturyGothic'" font-size="34">bowder</text>
</g>
</svg>
