<?xml version="1.0" encoding="utf-8"?>
<!-- Generator: Adobe Illustrator 18.1.0, SVG Export Plug-In . SVG Version: 6.00 Build 0)  -->
<!DOCTYPE svg PUBLIC "-//W3C//DTD SVG 1.1//EN" "http://www.w3.org/Graphics/SVG/1.1/DTD/svg11.dtd">
<svg version="1.1" id="Layer_1" xmlns="http://www.w3.org/2000/svg" xmlns:xlink="http://www.w3.org/1999/xlink" x="0px" y="0px"
	 viewBox="0 0 248.5 339" enable-background="new 0 0 248.5 339" xml:space="preserve">
<g>
	<g>
		<path fill="#F4F4F4" d="M219.8,41.5c4.8,0,8.9,1.7,12.2,5.1c3.3,3.4,5,7.5,5,12.3c0,4.7-1.7,8.7-5,12.1c-3.3,3.4-7.4,5.1-12.2,5.1
			c-4.8,0-8.9-1.7-12.2-5.1c-3.3-3.4-5-7.4-5-12.1c0-4.8,1.7-8.9,5-12.3C210.9,43.2,215,41.5,219.8,41.5z"/>
	</g>
	<path fill="#F4F4F4" d="M61,270.9v1h130.9v-1c0.1,0,0.1,0,0.1,0V41.5h-16.2c0,0-24.8,20-49.4,40.9c-24.6-20.9-49.4-40.9-49.4-40.9
		H61"/>
	<path fill="#202737" d="M103.2,227.3c3.2,3.6,4.8,7.8,4.8,12.6c0,4.9-1.7,9.2-5.1,12.8c-3.4,3.7-7.8,5.5-13.2,5.5
		c-5.4,0-9.7-1.8-13.2-5.5c-3.4-3.7-5.1-7.9-5.1-12.8c0-4.9,1.6-9.1,4.8-12.7c3.6-3.9,8-5.9,13.4-5.9
		C95.2,221.4,99.7,223.3,103.2,227.3z"/>
	<path fill="#7B838C" d="M103.2,190.4c3.2,3.6,4.8,7.8,4.8,12.6c0,4.9-1.7,9.2-5.1,12.8c-3.4,3.7-7.8,5.5-13.2,5.5
		c-5.4,0-9.7-1.8-13.2-5.5c-3.4-3.7-5.1-7.9-5.1-12.8c0-4.9,1.6-9.1,4.8-12.7c3.6-3.9,8-5.9,13.4-5.9
		C95.2,184.5,99.7,186.4,103.2,190.4z"/>
	<path fill="#7B838C" d="M139.8,227.3c3.2,3.6,4.8,7.8,4.8,12.6c0,4.9-1.7,9.2-5.1,12.8c-3.4,3.7-7.8,5.5-13.2,5.5
		c-5.4,0-9.7-1.8-13.2-5.5c-3.4-3.7-5.1-7.9-5.1-12.8c0-4.9,1.6-9.1,4.8-12.7c3.6-3.9,8-5.9,13.4-5.9
		C131.8,221.4,136.3,223.3,139.8,227.3z"/>
	<path fill="#AEB5BF" d="M103.2,153.5c3.2,3.6,4.8,7.8,4.8,12.6c0,4.9-1.7,9.2-5.1,12.8c-3.4,3.7-7.8,5.5-13.2,5.5
		c-5.4,0-9.7-1.8-13.2-5.5c-3.4-3.7-5.1-7.9-5.1-12.8c0-4.9,1.6-9.1,4.8-12.7c3.6-3.9,8-5.9,13.4-5.9
		C95.2,147.6,99.7,149.6,103.2,153.5z"/>
	<path fill="#AEB5BF" d="M176.4,227.3c3.2,3.6,4.8,7.8,4.8,12.6c0,4.9-1.7,9.2-5.1,12.8c-3.4,3.7-7.8,5.5-13.2,5.5
		c-5.4,0-9.7-1.8-13.2-5.5c-3.4-3.7-5.1-7.9-5.1-12.8c0-4.9,1.6-9.1,4.8-12.7c3.6-3.9,8-5.9,13.4-5.9
		C168.4,221.4,172.8,223.3,176.4,227.3z"/>
	<text transform="matrix(1 0 0 1 57.9764 305.5134)" fill="#FFFFFF" font-family="'CenturyGothic'" font-size="34.5">bowder</text>
</g>
</svg>
