<?xml version="1.0" encoding="utf-8"?>
<!-- Generator: Adobe Illustrator 18.1.0, SVG Export Plug-In . SVG Version: 6.00 Build 0)  -->
<!DOCTYPE svg PUBLIC "-//W3C//DTD SVG 1.1//EN" "http://www.w3.org/Graphics/SVG/1.1/DTD/svg11.dtd">
<svg version="1.1" id="Layer_1" xmlns="http://www.w3.org/2000/svg" xmlns:xlink="http://www.w3.org/1999/xlink" x="0px" y="0px"
	 viewBox="0 0 176 268.5" enable-background="new 0 0 176 268.5" xml:space="preserve">
<rect x="-1239.5" y="616" fill="#AEB5BF" width="792" height="566.6"/>
<path d="M-962.6,111.8v61.6h-7.5c0,0-19,0.2-23.7,0.2c-8.4,0-15.5-3-21.4-9.1c-5.9-6.1-8.9-13.4-8.9-22.1c0-8.5,3-15.8,9-21.8
	c6-6,13.1-9.1,21.5-9.1c4.8,0,23.5,0.2,23.5,0.2H-962.6z"/>
<path d="M-695.7,111.6c9.1,0,16.6,3.3,22.6,9.9c5.4,6,8.2,13.1,8.2,21.3c0,8.2-2.9,15.5-8.6,21.6c-5.7,6.2-13.1,9.2-22.1,9.2
	c-9.1,0-16.5-3.1-22.2-9.2c-5.7-6.2-8.6-13.4-8.6-21.6c0-8.2,2.7-15.3,8.2-21.3C-712.4,114.9-704.8,111.6-695.7,111.6z"/>
<path d="M-844.5,111.6c9.1,0,16.6,3.3,22.6,9.9c5.4,6,8.2,13.1,8.2,21.3c0,8.2-2.9,15.5-8.6,21.6c-5.7,6.2-13.1,9.2-22.1,9.2
	c-9.1,0-16.5-3.1-22.2-9.2c-5.7-6.2-8.6-13.4-8.6-21.6c0-8.2,2.7-15.3,8.2-21.3C-861.2,114.9-853.6,111.6-844.5,111.6z"/>
<path d="M-933.5,333.5c8.7,0,15.9,3.1,21.6,9.4c5.2,5.7,7.8,12.5,7.8,20.4c0,7.9-2.7,14.8-8.2,20.7c-5.5,5.9-12.5,8.8-21.2,8.8
	c-8.7,0-15.7-2.9-21.2-8.8c-5.5-5.9-8.2-12.8-8.2-20.7c0-7.8,2.6-14.6,7.8-20.3C-949.5,336.6-942.3,333.5-933.5,333.5z"/>
<path d="M-589.7,173.5V90.4h7.6c0,0,39.1,24.3,45,30.3c5.9,6.1,8.9,13.4,8.9,22c0,8.5-3,15.8-8.9,21.9c-6,6-13.1,9.1-21.5,9.1
	C-563.5,173.7-589.7,173.5-589.7,173.5z"/>
<path d="M-1074,311.7v82.9c0,0-26.4,0.3-31.1,0.3c-8.3,0-15.5-3-21.4-9.1c-5.9-6-8.8-13.4-8.8-22.1c0-8.5,3-15.7,8.9-21.8
	c6-6,44.9-30.3,44.9-30.3H-1074z"/>
<path d="M-715.4,333.2v61.4h-7.5c0,0-19,0.3-23.7,0.3c-8.3,0-15.5-3-21.4-9.1c-5.9-6-8.8-13.4-8.8-22.1c0-8.5,3-15.7,8.9-21.8
	c6-6,13.1-9,21.5-9c4.8,0,23.4,0.3,23.4,0.3H-715.4z"/>
<path d="M-603,333.2h7.6c0,0,17.8-0.3,22.1-0.3c4.4,0,8.3,1.1,11.7,3.4c3.4,2.2,5.9,5.3,7.6,9s2.4,9.7,2.4,17.7v31.6h-7.6h-36.2
	h-7.6V333.2z"/>
<path d="M-1175.4,590.6v-81.2h7.4c0,0,38.2,23.8,44,29.7c5.8,5.9,8.7,13.1,8.7,21.6c0,8.3-2.9,15.5-8.7,21.4
	c-5.8,5.9-12.8,8.9-21,8.9C-1149.8,590.8-1175.4,590.6-1175.4,590.6z"/>
<path d="M-1021.4,530.2c8.9,0,16.3,3.2,22.1,9.7c5.3,5.9,8,12.8,8,20.8c0,8.1-2.8,15.1-8.4,21.1c-5.6,6-12.8,9-21.7,9
	c-8.9,0-16.1-3-21.7-9c-5.6-6-8.4-13.1-8.4-21.1c0-8,2.7-14.9,8-20.8C-1037.7,533.4-1030.4,530.2-1021.4,530.2z"/>
<path d="M-605.6,530.2c8.9,0,16.3,3.2,22.1,9.7c5.3,5.9,8,12.8,8,20.8c0,8.1-2.8,15.1-8.4,21.1c-5.6,6-12.8,9-21.7,9
	c-8.9,0-16.1-3-21.7-9c-5.6-6-8.4-13.1-8.4-21.1c0-8,2.7-14.9,8-20.8C-621.9,533.4-614.5,530.2-605.6,530.2z"/>
<path d="M-702.1,509.4v81.2c0,0-25.9,0.2-30.5,0.2c-8.2,0-15.1-3-20.9-8.9c-5.8-5.9-8.7-13.1-8.7-21.6c0-8.3,2.9-15.4,8.8-21.3
	c5.8-5.9,44-29.7,44-29.7H-702.1z"/>
<path d="M-506.4,530.4c0,0,19.9-0.2,22.6-0.2c2.1,0,4.2,0.7,6.6,2l-21.6,58.5h-7.6V530.4z"/>
<polygon points="-909.1,590.7 -935,530 -843,530 -869.4,590.7 "/>
<g>
	<path d="M-1122.4,113.2h7.7v69.5c-0.1,7-0.1,7-1.9,9.2c-1.8,2.3-5,3.4-8.2,3.4c-2.6,0-5.5-0.6-8.7-1.8v-6.8c2,1,3.9,1.6,5.5,1.6
		c2.1,0,3.6-0.8,4.6-2.5c0.6-1.1,0.9-3.3,0.9-6.8V113.2z M-1118.6,88.9c1.7,0,3.2,0.6,4.4,1.8c1.2,1.2,1.8,2.7,1.8,4.4
		c0,1.7-0.6,3.2-1.8,4.4c-1.2,1.2-2.7,1.8-4.4,1.8c-1.7,0-3.2-0.6-4.4-1.8c-1.2-1.2-1.8-2.7-1.8-4.4c0-1.7,0.6-3.2,1.8-4.4
		C-1121.8,89.5-1120.4,88.9-1118.6,88.9z"/>
	<polygon points="-1133.4,192.8 -1133.4,113.2 -1115.3,113.2 -1115.3,181.8 	"/>
</g>
<path d="M-964.7,2h6.8v60c0,4.4-0.8,7.6-2.4,9.6c-1.6,2-3.7,3-6.5,3c-2.3,0-4.8-0.5-7.7-1.6v-6c1.8,0.9,3.4,1.4,4.8,1.4
	c1.8,0,3.2-0.8,4.1-2.3c0.5-1,0.8-3,0.8-6V2z M-961.4-19.5c1.5,0,2.8,0.5,3.9,1.6c1.1,1.1,1.6,2.4,1.6,3.9c0,1.5-0.5,2.8-1.6,3.9
	c-1.1,1.1-2.4,1.6-3.9,1.6s-2.8-0.5-3.9-1.6c-1.1-1.1-1.6-2.4-1.6-3.9c0-1.5,0.5-2.8,1.6-3.9C-964.2-18.9-962.9-19.5-961.4-19.5z"/>
<path d="M-892,2v52.1h-6.6v-9c-2.8,3.4-6,6-9.5,7.7s-7.3,2.6-11.5,2.6c-7.4,0-13.7-2.7-18.9-8c-5.2-5.3-7.8-11.9-7.8-19.5
	c0-7.5,2.6-13.9,7.9-19.3c5.3-5.3,11.6-8,19-8c4.3,0,8.2,0.9,11.6,2.7c3.5,1.8,6.5,4.6,9.1,8.2V2H-892z M-918.8,7.1
	c-3.7,0-7.2,0.9-10.3,2.8c-3.2,1.8-5.7,4.4-7.5,7.7c-1.9,3.3-2.8,6.8-2.8,10.5c0,3.7,0.9,7.2,2.8,10.5c1.9,3.4,4.4,6,7.6,7.8
	c3.2,1.9,6.6,2.8,10.2,2.8c3.7,0,7.1-0.9,10.4-2.8c3.3-1.9,5.8-4.4,7.6-7.5c1.8-3.2,2.7-6.7,2.7-10.7c0-6-2-11.1-6-15.1
	C-908.1,9.2-913,7.1-918.8,7.1z"/>
<path d="M-826.3,12.8l-5.3,3.3C-836.2,10-842.5,7-850.4,7c-6.3,0-11.6,2-15.8,6.1c-4.2,4.1-6.3,9-6.3,14.9c0,3.8,1,7.4,2.9,10.7
	c1.9,3.4,4.6,6,7.9,7.8c3.4,1.9,7.1,2.8,11.3,2.8c7.7,0,13.9-3,18.8-9.2l5.3,3.5c-2.5,3.8-5.8,6.7-10,8.7c-4.2,2.1-9,3.1-14.4,3.1
	c-8.2,0-15.1-2.6-20.5-7.9c-5.4-5.2-8.1-11.6-8.1-19.1c0-5,1.3-9.7,3.8-14.1c2.5-4.3,6-7.7,10.5-10.1c4.4-2.4,9.4-3.6,14.9-3.6
	c3.4,0,6.8,0.5,10,1.6c3.2,1.1,5.9,2.4,8.2,4.1C-829.8,8.1-827.9,10.2-826.3,12.8z"/>
<path d="M-788.7,0.7c8,0,14.7,2.9,20,8.7c4.8,5.3,7.2,11.6,7.2,18.8c0,7.3-2.5,13.6-7.6,19.1c-5.1,5.4-11.6,8.2-19.6,8.2
	c-8,0-14.5-2.7-19.6-8.2c-5.1-5.4-7.6-11.8-7.6-19.1c0-7.2,2.4-13.5,7.2-18.8C-803.5,3.6-796.8,0.7-788.7,0.7z M-788.8,7.2
	c-5.6,0-10.4,2.1-14.4,6.2c-4,4.1-6,9.1-6,14.9c0,3.8,0.9,7.3,2.7,10.5c1.8,3.3,4.3,5.8,7.4,7.5c3.1,1.8,6.5,2.7,10.2,2.7
	c3.7,0,7.1-0.9,10.2-2.7c3.1-1.8,5.6-4.3,7.4-7.5c1.8-3.3,2.7-6.8,2.7-10.5c0-5.8-2-10.8-6-14.9C-778.4,9.3-783.2,7.2-788.8,7.2z"/>
<path d="M-748.7,54.1v-72.3h6.7V11c2.8-3.4,6-6,9.4-7.7c3.5-1.7,7.3-2.6,11.4-2.6c7.4,0,13.7,2.7,18.9,8c5.2,5.4,7.8,11.8,7.8,19.5
	c0,7.5-2.6,14-7.9,19.3c-5.3,5.3-11.6,8-19,8c-4.2,0-8.1-0.9-11.5-2.7c-3.4-1.8-6.5-4.6-9.1-8.2v9.6H-748.7z M-721.9,49
	c3.7,0,7.2-0.9,10.3-2.8c3.2-1.8,5.7-4.4,7.5-7.7c1.9-3.3,2.8-6.8,2.8-10.5c0-3.7-0.9-7.2-2.8-10.6c-1.9-3.4-4.4-6-7.6-7.8
	s-6.6-2.8-10.2-2.8c-3.7,0-7.1,0.9-10.4,2.8c-3.3,1.9-5.8,4.4-7.6,7.5c-1.8,3.2-2.7,6.7-2.7,10.7c0,6,2,11.1,6,15.1
	C-732.6,47-727.7,49-721.9,49z"/>
<path d="M-917.6,209.9v70.6h-6.5v-8.8c-2.7,3.3-5.8,5.9-9.3,7.5c-3.4,1.7-7.2,2.5-11.2,2.5c-7.2,0-13.4-2.6-18.5-7.8
	c-5.1-5.2-7.7-11.6-7.7-19.1c0-7.3,2.6-13.6,7.7-18.8c5.2-5.2,11.4-7.8,18.6-7.8c4.2,0,8,0.9,11.4,2.7c3.4,1.8,6.4,4.5,8.9,8v-29
	H-917.6z M-943.8,234.6c-3.6,0-7,0.9-10.1,2.7c-3.1,1.8-5.5,4.3-7.4,7.6c-1.8,3.2-2.7,6.7-2.7,10.3c0,3.6,0.9,7,2.8,10.3
	c1.8,3.3,4.3,5.8,7.4,7.7c3.1,1.8,6.4,2.7,10,2.7c3.6,0,7-0.9,10.2-2.7c3.2-1.8,5.7-4.3,7.4-7.3c1.7-3.1,2.6-6.6,2.6-10.4
	c0-5.9-1.9-10.8-5.8-14.8C-933.3,236.6-938.1,234.6-943.8,234.6z"/>
<path d="M-859.8,263.7l5.5,2.9c-1.8,3.6-3.9,6.4-6.3,8.6c-2.4,2.2-5,3.8-8,5c-3,1.1-6.3,1.7-10.1,1.7c-8.3,0-14.8-2.7-19.5-8.2
	c-4.7-5.4-7-11.6-7-18.5c0-6.5,2-12.2,6-17.3c5-6.4,11.8-9.7,20.2-9.7c8.7,0,15.6,3.3,20.8,9.9c3.7,4.7,5.6,10.5,5.6,17.4h-45.9
	c0.1,5.9,2,10.8,5.7,14.6c3.7,3.8,8.2,5.7,13.6,5.7c2.6,0,5.1-0.5,7.6-1.4c2.5-0.9,4.5-2.1,6.3-3.6
	C-863.7,269.4-861.8,267-859.8,263.7z M-859.8,249.9c-0.9-3.5-2.1-6.3-3.8-8.4c-1.7-2.1-3.9-3.8-6.6-5.1c-2.8-1.3-5.6-1.9-8.7-1.9
	c-5,0-9.3,1.6-12.9,4.8c-2.6,2.3-4.6,5.9-6,10.5H-859.8z"/>
<path d="M-789.6,229.6v51h-6.5v-8.8c-2.7,3.3-5.8,5.9-9.3,7.5c-3.4,1.7-7.2,2.5-11.2,2.5c-7.2,0-13.4-2.6-18.5-7.8
	c-5.1-5.2-7.7-11.6-7.7-19.1c0-7.3,2.6-13.6,7.7-18.8c5.2-5.2,11.4-7.8,18.6-7.8c4.2,0,8,0.9,11.4,2.7c3.4,1.8,6.4,4.5,8.9,8v-9.4
	H-789.6z M-815.8,234.6c-3.6,0-7,0.9-10.1,2.7c-3.1,1.8-5.5,4.3-7.4,7.6c-1.8,3.2-2.7,6.7-2.7,10.3c0,3.6,0.9,7,2.8,10.3
	c1.8,3.3,4.3,5.8,7.4,7.7c3.1,1.8,6.4,2.7,10,2.7c3.6,0,7-0.9,10.2-2.7c3.2-1.8,5.7-4.3,7.4-7.3c1.7-3.1,2.6-6.6,2.6-10.4
	c0-5.9-1.9-10.8-5.8-14.8C-805.3,236.6-810.1,234.6-815.8,234.6z"/>
<path d="M-774.8,229.6h6.6v9.1c2.6-3.5,5.5-6.1,8.7-7.8c3.2-1.7,6.7-2.6,10.4-2.6c3.8,0,7.2,1,10.1,2.9c3,1.9,5.1,4.5,6.5,7.8
	c1.4,3.3,2.1,8.4,2.1,15.3v26.2h-6.6v-24.3c0-5.9-0.2-9.8-0.7-11.8c-0.8-3.4-2.2-5.9-4.4-7.6c-2.2-1.7-5-2.6-8.4-2.6
	c-4,0-7.5,1.3-10.7,3.9c-3.1,2.6-5.2,5.9-6.2,9.7c-0.6,2.5-0.9,7.2-0.9,13.9v18.7h-6.6V229.6z"/>
<g>
	<path d="M-1004.8,489.9v-69.1h6.4v27.8c2.7-3.3,5.7-5.8,9-7.4c3.3-1.6,7-2.5,10.9-2.5c7,0,13.1,2.6,18.1,7.7
		c5,5.1,7.5,11.3,7.5,18.6c0,7.2-2.5,13.4-7.6,18.5c-5,5.1-11.1,7.7-18.2,7.7c-4.1,0-7.7-0.9-11-2.6c-3.3-1.7-6.2-4.4-8.7-7.8v9.2
		H-1004.8z M-979.1,485c3.6,0,6.9-0.9,9.9-2.6c3-1.8,5.4-4.2,7.2-7.4s2.7-6.5,2.7-10.1s-0.9-6.9-2.7-10.1c-1.8-3.2-4.2-5.7-7.2-7.5
		c-3-1.8-6.3-2.7-9.7-2.7c-3.5,0-6.8,0.9-10,2.7c-3.2,1.8-5.6,4.2-7.3,7.2c-1.7,3-2.5,6.4-2.5,10.2c0,5.8,1.9,10.6,5.7,14.5
		C-989.3,483.1-984.7,485-979.1,485z"/>
	<path d="M-917.6,438.8c7.7,0,14,2.8,19.1,8.3c4.6,5.1,6.9,11.1,6.9,18c0,7-2.4,13-7.3,18.3c-4.9,5.2-11.1,7.8-18.7,7.8
		c-7.6,0-13.9-2.6-18.7-7.8c-4.9-5.2-7.3-11.3-7.3-18.3c0-6.9,2.3-12.9,6.9-18C-931.7,441.6-925.3,438.8-917.6,438.8z M-917.6,445.1
		c-5.3,0-9.9,2-13.7,5.9c-3.8,3.9-5.7,8.7-5.7,14.3c0,3.6,0.9,7,2.6,10.1c1.7,3.1,4.1,5.5,7.1,7.2c3,1.7,6.2,2.5,9.8,2.5
		c3.6,0,6.8-0.8,9.8-2.5c3-1.7,5.3-4.1,7.1-7.2c1.7-3.1,2.6-6.5,2.6-10.1c0-5.6-1.9-10.4-5.8-14.3
		C-907.7,447-912.3,445.1-917.6,445.1z"/>
	<path d="M-886.5,440.1h6.6l15.3,36.2l15.9-36.2h1.2l16,36.2l15.6-36.2h6.7l-21.7,49.8h-1.2l-15.9-35.7l-15.9,35.7h-1.2
		L-886.5,440.1z"/>
	<path d="M-752,420.8v69.1h-6.3v-8.6c-2.7,3.3-5.7,5.7-9,7.4c-3.3,1.6-7,2.5-11,2.5c-7.1,0-13.1-2.6-18.1-7.7
		c-5-5.1-7.5-11.3-7.5-18.7c0-7.2,2.5-13.3,7.6-18.4s11.1-7.7,18.2-7.7c4.1,0,7.8,0.9,11.1,2.6c3.3,1.7,6.2,4.4,8.7,7.8v-28.4H-752z
		 M-777.6,445c-3.6,0-6.9,0.9-9.9,2.6c-3,1.8-5.4,4.2-7.2,7.4c-1.8,3.2-2.7,6.5-2.7,10.1c0,3.5,0.9,6.9,2.7,10.1
		c1.8,3.2,4.2,5.7,7.3,7.5c3,1.8,6.3,2.7,9.8,2.7c3.5,0,6.8-0.9,10-2.7c3.1-1.8,5.6-4.2,7.3-7.2c1.7-3,2.5-6.4,2.5-10.2
		c0-5.8-1.9-10.6-5.7-14.5C-767.4,446.9-772.1,445-777.6,445z"/>
	<path d="M-695.5,473.4l5.4,2.8c-1.8,3.5-3.8,6.3-6.1,8.4s-4.9,3.8-7.8,4.9c-2.9,1.1-6.2,1.7-9.9,1.7c-8.1,0-14.5-2.7-19.1-8
		c-4.6-5.3-6.9-11.4-6.9-18.1c0-6.3,1.9-12,5.8-16.9c4.9-6.3,11.5-9.4,19.8-9.4c8.5,0,15.3,3.2,20.4,9.7c3.6,4.6,5.4,10.2,5.5,17
		h-44.9c0.1,5.8,2,10.5,5.6,14.2c3.6,3.7,8,5.6,13.3,5.6c2.5,0,5-0.4,7.4-1.3c2.4-0.9,4.4-2.1,6.1-3.5
		C-699.3,479-697.5,476.6-695.5,473.4z M-695.5,459.9c-0.9-3.4-2.1-6.2-3.7-8.2s-3.8-3.7-6.5-4.9c-2.7-1.3-5.5-1.9-8.5-1.9
		c-4.9,0-9.1,1.6-12.6,4.7c-2.6,2.3-4.5,5.7-5.8,10.3H-695.5z"/>
	<path d="M-678.9,440.1h6.6v7.3c2-2.9,4-5,6.2-6.4c2.2-1.4,4.4-2.1,6.8-2.1c1.8,0,3.7,0.6,5.7,1.7l-3.3,5.4
		c-1.3-0.6-2.5-0.9-3.4-0.9c-2.1,0-4.2,0.9-6.2,2.6c-2,1.8-3.5,4.5-4.5,8.2c-0.8,2.8-1.2,8.6-1.2,17.2v16.9h-6.6V440.1z"/>
</g>
<g>
	<g>
		<path fill="#F4F4F4" d="M-1452.5,198.9c3.3,0,6.1,1.2,8.4,3.5c2.3,2.3,3.4,5.1,3.4,8.4c0,3.2-1.1,6-3.4,8.3
			c-2.3,2.3-5.1,3.5-8.4,3.5c-3.3,0-6.1-1.2-8.4-3.5c-2.3-2.3-3.4-5.1-3.4-8.3c0-3.3,1.1-6.1,3.4-8.4
			C-1458.6,200.1-1455.8,198.9-1452.5,198.9z"/>
	</g>
	<path fill="#F4F4F4" d="M-1513.1,356.6V199.5h14.4c0,0,73.9,45.9,85.1,57.4c11.2,11.5,16.8,25.3,16.8,41.7
		c0,16.1-5.6,29.9-16.9,41.3c-11.3,11.4-24.8,17.1-40.7,17.1C-1463.6,357-1513.1,356.6-1513.1,356.6z"/>
	<path fill="#F4F4F4" d="M-1406.2,356.6V199.5h14.4c0,0,73.9,45.9,85.1,57.4c11.2,11.5,16.8,25.3,16.8,41.7
		c0,16.1-5.6,29.9-16.9,41.3c-11.3,11.4-24.8,17.1-40.7,17.1C-1356.6,357-1406.2,356.6-1406.2,356.6z"/>
	<path fill="#F4F4F4" d="M-1556.7,357c-15.8,0-29.4-5.7-40.7-17.1c-11.3-11.4-16.9-25.2-16.9-41.3c0-16.3,5.6-30.2,16.8-41.7
		c11.2-11.4,85.1-57.4,85.1-57.4h14.4v157.1C-1498.1,356.6-1547.6,357-1556.7,357z"/>
	<path fill="#F4F4F4" d="M-1451.3,357c-15.8,0-29.4-5.7-40.7-17.1c-11.3-11.4-16.9-25.2-16.9-41.3c0-16.3,5.6-30.2,16.8-41.7
		c11.2-11.4,85.1-57.4,85.1-57.4h14.4v157.1C-1392.7,356.6-1442.2,357-1451.3,357z"/>
	<path fill="#AEB5BF" d="M-1519.3,260.2c9.8,10.8,14.7,23.6,14.7,38.4c0,14.9-5.2,27.9-15.6,39c-10.4,11.1-23.7,16.7-40.1,16.7
		c-16.3,0-29.6-5.6-40-16.7c-10.4-11.1-15.6-24.2-15.6-39c0-14.8,4.9-27.7,14.7-38.5c10.8-11.9,24.4-17.8,40.8-17.8
		C-1543.7,242.3-1530.1,248.3-1519.3,260.2z"/>
	<path fill="#AEB5BF" d="M-1344,242.3c16.4,0,30,5.9,40.8,17.8c9.8,10.8,14.7,23.7,14.7,38.5c0,14.9-5.2,27.9-15.6,39
		c-10.4,11.1-23.7,16.7-40,16.7c-16.4,0-29.7-5.6-40.1-16.7c-10.4-11.1-15.6-24.2-15.6-39c0-14.8,4.9-27.6,14.7-38.4
		C-1374.2,248.3-1360.5,242.3-1344,242.3z"/>
	<path fill="#7B838C" d="M-1506.5,242.3c16.4,0,30,5.9,40.8,17.8c9.8,10.8,14.7,23.7,14.7,38.5c0,14.9-5.2,27.9-15.6,39
		c-10.4,11.1-23.7,16.7-40,16.7c-16.4,0-29.7-5.6-40.1-16.7c-10.4-11.1-15.6-24.2-15.6-39c0-14.8,4.9-27.6,14.7-38.4
		C-1536.6,248.3-1523,242.3-1506.5,242.3z"/>
	<path fill="#7B838C" d="M-1391.9,242.3c16.4,0,30,5.9,40.8,17.8c9.8,10.8,14.7,23.7,14.7,38.5c0,14.9-5.2,27.9-15.6,39
		c-10.4,11.1-23.7,16.7-40,16.7c-16.4,0-29.7-5.6-40.1-16.7c-10.4-11.1-15.6-24.2-15.6-39c0-14.8,4.9-27.6,14.7-38.4
		C-1422,248.3-1408.4,242.3-1391.9,242.3z"/>
	<path fill="#202737" d="M-1455,242.3c16.4,0,30,5.9,40.8,17.8c9.8,10.8,14.7,23.7,14.7,38.5c0,14.9-5.2,27.9-15.6,39
		c-10.4,11.1-23.7,16.7-40,16.7c-16.4,0-29.7-5.6-40.1-16.7c-10.4-11.1-15.6-24.2-15.6-39c0-14.8,4.9-27.6,14.7-38.4
		C-1485.1,248.3-1471.5,242.3-1455,242.3z"/>
	<path fill="#202737" d="M-1450.7,242.3c16.4,0,30,5.9,40.8,17.8c9.8,10.8,14.7,23.7,14.7,38.5c0,14.9-5.2,27.9-15.6,39
		c-10.4,11.1-23.7,16.7-40,16.7c-16.4,0-29.7-5.6-40.1-16.7c-10.4-11.1-15.6-24.2-15.6-39c0-14.8,4.9-27.6,14.7-38.4
		C-1480.8,248.3-1467.2,242.3-1450.7,242.3z"/>
	<path fill="#F4F4F4" d="M-1589.3,347.2h274.7c0,0-7.1,8-29,10.5c-8.9,0-218.4,0-218.4,0S-1581.6,353.8-1589.3,347.2z"/>
	<g>
		<path fill="#F4F4F4" d="M-1463.9-34.8c3.3,0,6.1,1.2,8.4,3.5c2.3,2.3,3.4,5.1,3.4,8.4c0,3.2-1.1,6-3.4,8.3
			c-2.3,2.3-5.1,3.5-8.4,3.5s-6.1-1.2-8.4-3.5c-2.3-2.3-3.4-5.1-3.4-8.3c0-3.3,1.1-6.1,3.4-8.4C-1470-33.7-1467.2-34.8-1463.9-34.8z
			"/>
	</g>
	<path fill="#F4F4F4" d="M-1463.9,134.7V-22.4h14.4c0,0,73.9,45.9,85.1,57.4c11.2,11.5,16.8,25.3,16.8,41.7
		c0,16.1-5.6,29.9-16.9,41.3c-11.3,11.4-24.8,17.1-40.7,17.1C-1414.4,135.1-1463.9,134.7-1463.9,134.7z"/>
	<path fill="#F4F4F4" d="M-1507.5,135.1c-15.8,0-29.4-5.7-40.7-17.1c-11.3-11.4-16.9-25.2-16.9-41.3c0-16.3,5.6-30.2,16.8-41.7
		c11.2-11.4,85.1-57.4,85.1-57.4h14.4v157.1C-1448.9,134.7-1498.4,135.1-1507.5,135.1z"/>
	<path fill="#AEB5BF" d="M-1475.5,39.9c9.4,10.3,14,22.6,14,36.6c0,14.2-4.9,26.6-14.8,37.3c-9.9,10.6-22.6,15.9-38.3,15.9
		c-15.5,0-28.3-5.3-38.2-15.9c-9.9-10.6-14.8-23-14.8-37.3c0-14.1,4.7-26.4,14-36.7c10.3-11.3,23.3-17,39-17
		C-1498.8,22.8-1485.8,28.5-1475.5,39.9z"/>
	<path fill="#AEB5BF" d="M-1360.1,39.9c9.4,10.3,14,22.6,14,36.6c0,14.2-4.9,26.6-14.8,37.3c-9.9,10.6-22.6,15.9-38.3,15.9
		c-15.5,0-28.3-5.3-38.2-15.9c-9.9-10.6-14.8-23-14.8-37.3c0-14.1,4.7-26.4,14-36.7c10.3-11.3,23.3-17,39-17
		C-1383.4,22.8-1370.4,28.5-1360.1,39.9z"/>
	<path fill="#7B838C" d="M-1485,55.5c3.8,4.2,5.7,9.1,5.7,14.8c0,5.7-2,10.8-6,15c-4,4.3-9.1,6.4-15.5,6.4c-6.3,0-11.4-2.1-15.4-6.4
		c-4-4.3-6-9.3-6-15c0-5.7,1.9-10.7,5.7-14.8c4.2-4.6,9.4-6.9,15.7-6.9C-1494.4,48.5-1489.2,50.9-1485,55.5z"/>
	<path fill="#202737" d="M-1440.9,55.5c3.8,4.2,5.7,9.1,5.7,14.8c0,5.7-2,10.8-6,15c-4,4.3-9.1,6.4-15.5,6.4
		c-6.3,0-11.4-2.1-15.4-6.4c-4-4.3-6-9.3-6-15c0-5.7,1.9-10.7,5.7-14.8c4.2-4.6,9.4-6.9,15.7-6.9
		C-1450.4,48.5-1445.1,50.9-1440.9,55.5z"/>
	<path fill="#7B838C" d="M-1397.3,55.5c3.8,4.2,5.7,9.1,5.7,14.8c0,5.7-2,10.8-6,15c-4,4.3-9.1,6.4-15.5,6.4
		c-6.3,0-11.4-2.1-15.4-6.4c-4-4.3-6-9.3-6-15c0-5.7,1.9-10.7,5.7-14.8c4.2-4.6,9.4-6.9,15.7-6.9
		C-1406.8,48.5-1401.5,50.9-1397.3,55.5z"/>
	<path fill="#F4F4F4" d="M-1540.1,125.3h166.8c0,0-4.3,8-17.6,10.5c-5.4,0-132.6,0-132.6,0S-1535.5,131.9-1540.1,125.3z"/>
	<g>
		<path fill="#F4F4F4" d="M-1838.2-28.9c3.3,0,6.1,1.2,8.4,3.5c2.3,2.3,3.4,5.1,3.4,8.4c0,3.2-1.1,6-3.4,8.3
			c-2.3,2.3-5.1,3.5-8.4,3.5s-6.1-1.2-8.4-3.5c-2.3-2.3-3.4-5.1-3.4-8.3c0-3.3,1.1-6.1,3.4-8.4
			C-1844.2-27.7-1841.5-28.9-1838.2-28.9z"/>
	</g>
	<path fill="#F4F4F4" d="M-1898.8,128.8V-28.3h14.4c0,0,73.9,45.9,85.1,57.4c11.2,11.5,16.8,25.3,16.8,41.7
		c0,16.1-5.6,29.9-16.9,41.3c-11.3,11.4-24.8,17.1-40.7,17.1C-1849.3,129.2-1898.8,128.8-1898.8,128.8z"/>
	<path fill="#F4F4F4" d="M-1791.9,128.8V-28.3h14.4c0,0,73.9,45.9,85.1,57.4c11.2,11.5,16.8,25.3,16.8,41.7
		c0,16.1-5.6,29.9-16.9,41.3c-11.3,11.4-24.8,17.1-40.7,17.1C-1742.3,129.2-1791.9,128.8-1791.9,128.8z"/>
	<path fill="#F4F4F4" d="M-1942.4,129.2c-15.8,0-29.4-5.7-40.7-17.1c-11.3-11.4-16.9-25.2-16.9-41.3c0-16.3,5.6-30.2,16.8-41.7
		c11.2-11.4,85.1-57.4,85.1-57.4h14.4v157.1C-1883.8,128.8-1933.3,129.2-1942.4,129.2z"/>
	<path fill="#F4F4F4" d="M-1837,129.2c-15.8,0-29.4-5.7-40.7-17.1c-11.3-11.4-16.9-25.2-16.9-41.3c0-16.3,5.6-30.2,16.8-41.7
		c11.2-11.4,85.1-57.4,85.1-57.4h14.4v157.1C-1778.4,128.8-1827.9,129.2-1837,129.2z"/>
	<path fill="#202737" d="M-1905,32.4c9.8,10.8,14.7,23.6,14.7,38.4c0,14.9-5.2,27.9-15.6,39c-10.4,11.1-23.7,16.7-40.1,16.7
		c-16.3,0-29.6-5.6-40-16.7c-10.4-11.1-15.6-24.2-15.6-39c0-14.8,4.9-27.7,14.7-38.5c10.8-11.9,24.4-17.8,40.8-17.8
		C-1929.4,14.5-1915.8,20.4-1905,32.4z"/>
	<path fill="#202737" d="M-1729.7,14.5c16.4,0,30,5.9,40.8,17.8c9.8,10.8,14.7,23.7,14.7,38.5c0,14.9-5.2,27.9-15.6,39
		c-10.4,11.1-23.7,16.7-40,16.7c-16.4,0-29.7-5.6-40.1-16.7c-10.4-11.1-15.6-24.2-15.6-39c0-14.8,4.9-27.6,14.7-38.4
		C-1759.8,20.4-1746.2,14.5-1729.7,14.5z"/>
	<path fill="#202737" d="M-1892.2,14.5c16.4,0,30,5.9,40.8,17.8c9.8,10.8,14.7,23.7,14.7,38.5c0,14.9-5.2,27.9-15.6,39
		c-10.4,11.1-23.7,16.7-40,16.7c-16.4,0-29.7-5.6-40.1-16.7c-10.4-11.1-15.6-24.2-15.6-39c0-14.8,4.9-27.6,14.7-38.4
		C-1922.3,20.4-1908.7,14.5-1892.2,14.5z"/>
	<path fill="#202737" d="M-1777.6,14.5c16.4,0,30,5.9,40.8,17.8c9.8,10.8,14.7,23.7,14.7,38.5c0,14.9-5.2,27.9-15.6,39
		c-10.4,11.1-23.7,16.7-40,16.7c-16.4,0-29.7-5.6-40.1-16.7c-10.4-11.1-15.6-24.2-15.6-39c0-14.8,4.9-27.6,14.7-38.4
		C-1807.7,20.4-1794.1,14.5-1777.6,14.5z"/>
	<path fill="#202737" d="M-1840.7,14.5c16.4,0,30,5.9,40.8,17.8c9.8,10.8,14.7,23.7,14.7,38.5c0,14.9-5.2,27.9-15.6,39
		c-10.4,11.1-23.7,16.7-40,16.7c-16.4,0-29.7-5.6-40.1-16.7c-10.4-11.1-15.6-24.2-15.6-39c0-14.8,4.9-27.6,14.7-38.4
		C-1870.8,20.4-1857.1,14.5-1840.7,14.5z"/>
	<path fill="#202737" d="M-1836.4,14.5c16.4,0,30,5.9,40.8,17.8c9.8,10.8,14.7,23.7,14.7,38.5c0,14.9-5.2,27.9-15.6,39
		c-10.4,11.1-23.7,16.7-40,16.7c-16.4,0-29.7-5.6-40.1-16.7c-10.4-11.1-15.6-24.2-15.6-39c0-14.8,4.9-27.6,14.7-38.4
		C-1866.5,20.4-1852.9,14.5-1836.4,14.5z"/>
	<path fill="#F4F4F4" d="M-1975,119.4h274.7c0,0-7.1,8-29,10.5c-8.9,0-218.4,0-218.4,0S-1967.3,126-1975,119.4z"/>
	<g>
		<path fill="#F4F4F4" d="M-1774.2,198.6c3.3,0,6.1,1.2,8.4,3.5c2.3,2.3,3.4,5.1,3.4,8.4c0,3.2-1.1,6-3.4,8.3
			c-2.3,2.3-5.1,3.5-8.4,3.5c-3.3,0-6.1-1.2-8.4-3.5c-2.3-2.3-3.4-5.1-3.4-8.3c0-3.3,1.1-6.1,3.4-8.4
			C-1780.2,199.8-1777.5,198.6-1774.2,198.6z"/>
	</g>
	<path fill="#F4F4F4" d="M-1839,351.6V194.5h11.1c0,0,57,45.9,65.6,57.4c8.6,11.5,12.9,25.3,12.9,41.7c0,16.1-4.3,29.9-13,41.3
		c-8.7,11.4-19.1,17.1-31.3,17.1C-1800.9,352-1839,351.6-1839,351.6z"/>
	<path fill="#F4F4F4" d="M-1872.6,352c-12.2,0-22.7-5.7-31.3-17.1c-8.7-11.4-13-25.2-13-41.3c0-16.3,4.3-30.2,12.9-41.7
		c8.6-11.4,65.6-57.4,65.6-57.4h11.1v157.1C-1827.5,351.6-1865.6,352-1872.6,352z"/>
	<path fill="#7B838C" d="M-1871.3,278c4,4.4,6,9.7,6,15.7c0,6.1-2.1,11.4-6.4,16c-4.2,4.6-9.7,6.8-16.4,6.8
		c-6.7,0-12.1-2.3-16.3-6.8c-4.2-4.6-6.4-9.9-6.4-16c0-6.1,2-11.3,6-15.7c4.4-4.9,10-7.3,16.7-7.3
		C-1881.3,270.7-1875.7,273.1-1871.3,278z"/>
	<path fill="#AEB5BF" d="M-1848.6,269.5c4,4.4,6,9.7,6,15.7c0,6.1-2.1,11.4-6.4,16c-4.2,4.6-9.7,6.8-16.4,6.8
		c-6.7,0-12.1-2.3-16.3-6.8c-4.2-4.6-6.4-9.9-6.4-16c0-6.1,2-11.3,6-15.7c4.4-4.9,10-7.3,16.7-7.3
		C-1858.6,262.2-1853,264.6-1848.6,269.5z"/>
	<path fill="#7B838C" d="M-1843.6,308.6c4,4.4,6,9.7,6,15.7c0,6.1-2.1,11.4-6.4,16c-4.2,4.6-9.7,6.8-16.4,6.8
		c-6.7,0-12.1-2.3-16.3-6.8c-4.2-4.6-6.4-9.9-6.4-16c0-6.1,2-11.3,6-15.7c4.4-4.9,10-7.3,16.7-7.3
		C-1853.6,301.2-1848,303.7-1843.6,308.6z"/>
	<path fill="#AEB5BF" d="M-1833.5,285.7c4,4.4,6,9.7,6,15.7c0,6.1-2.1,11.4-6.4,16c-4.2,4.6-9.7,6.8-16.4,6.8
		c-6.7,0-12.1-2.3-16.3-6.8c-4.2-4.6-6.4-9.9-6.4-16c0-6.1,2-11.3,6-15.7c4.4-4.9,10-7.3,16.7-7.3
		C-1843.4,278.3-1837.9,280.8-1833.5,285.7z"/>
	<path fill="#202737" d="M-1864.3,301.1c4,4.4,6,9.7,6,15.7c0,6.1-2.1,11.4-6.4,16c-4.2,4.6-9.7,6.8-16.4,6.8
		c-6.7,0-12.1-2.3-16.3-6.8c-4.2-4.6-6.4-9.9-6.4-16c0-6.1,2-11.3,6-15.7c4.4-4.9,10-7.3,16.7-7.3
		C-1874.3,293.7-1868.8,296.2-1864.3,301.1z"/>
	<g>
		<path fill="#F4F4F4" d="M-1362.6,428c4.8,0,8.9,1.7,12.2,5.1c3.3,3.4,5,7.5,5,12.3c0,4.7-1.7,8.7-5,12.1
			c-3.3,3.4-7.4,5.1-12.2,5.1c-4.8,0-8.9-1.7-12.2-5.1c-3.3-3.4-5-7.4-5-12.1c0-4.8,1.7-8.9,5-12.3
			C-1371.5,429.7-1367.4,428-1362.6,428z"/>
	</g>
	<path fill="#F4F4F4" d="M-1457.3,651.4V422h16.2c0,0,83.2,67.1,95.7,83.8c12.6,16.7,18.9,37,18.9,60.9c0,23.6-6.3,43.7-19,60.3
		c-12.7,16.7-27.9,25-45.8,25C-1401.6,652-1457.3,651.4-1457.3,651.4z"/>
	<path fill="#F4F4F4" d="M-1506.4,652c-17.8,0-33.1-8.3-45.8-25c-12.7-16.7-19-36.8-19-60.3c0-23.9,6.3-44.1,18.9-60.9
		c12.6-16.7,95.7-83.8,95.7-83.8h16.2v229.4C-1440.4,651.4-1496.2,652-1506.4,652z"/>
	<path fill="#202737" d="M-1514.7,600.5c4,4.4,6,9.7,6,15.7c0,6.1-2.1,11.4-6.4,16c-4.2,4.6-9.7,6.8-16.4,6.8
		c-6.7,0-12.1-2.3-16.3-6.8c-4.2-4.6-6.4-9.9-6.4-16c0-6.1,2-11.3,6-15.7c4.4-4.9,10-7.3,16.7-7.3
		C-1524.7,593.2-1519.1,595.7-1514.7,600.5z"/>
	<path fill="#7B838C" d="M-1530.9,556.7c4,4.4,6,9.7,6,15.7c0,6.1-2.1,11.4-6.4,16c-4.2,4.6-9.7,6.8-16.4,6.8
		c-6.7,0-12.1-2.3-16.3-6.8c-4.2-4.6-6.4-9.9-6.4-16c0-6.1,2-11.3,6-15.7c4.4-4.9,10-7.3,16.7-7.3
		C-1540.9,549.4-1535.4,551.9-1530.9,556.7z"/>
	<path fill="#7B838C" d="M-1470.5,612.2c4,4.4,6,9.7,6,15.7c0,6.1-2.1,11.4-6.4,16c-4.2,4.6-9.7,6.8-16.4,6.8
		c-6.7,0-12.1-2.3-16.3-6.8c-4.2-4.6-6.4-9.9-6.4-16c0-6.1,2-11.3,6-15.7c4.4-4.9,10-7.3,16.7-7.3
		C-1480.5,604.9-1474.9,607.4-1470.5,612.2z"/>
	<path fill="#AEB5BF" d="M-1521.7,510.9c4,4.4,6,9.7,6,15.7c0,6.1-2.1,11.4-6.4,16c-4.2,4.6-9.7,6.8-16.4,6.8
		c-6.7,0-12.1-2.3-16.3-6.8c-4.2-4.6-6.4-9.9-6.4-16c0-6.1,2-11.3,6-15.7c4.4-4.9,10-7.3,16.7-7.3
		C-1531.6,503.6-1526.1,506.1-1521.7,510.9z"/>
	<path fill="#AEB5BF" d="M-1423.7,612.2c4,4.4,6,9.7,6,15.7c0,6.1-2.1,11.4-6.4,16c-4.2,4.6-9.7,6.8-16.4,6.8
		c-6.7,0-12.1-2.3-16.3-6.8c-4.2-4.6-6.4-9.9-6.4-16c0-6.1,2-11.3,6-15.7c4.4-4.9,10-7.3,16.7-7.3
		C-1433.7,604.9-1428.1,607.4-1423.7,612.2z"/>
	<g>
		<path fill="#F4F4F4" d="M-1775.1,383.9c4.8,0,8.9,1.7,12.2,5.1c3.3,3.4,5,7.5,5,12.3c0,4.7-1.7,8.7-5,12.1
			c-3.3,3.4-7.4,5.1-12.2,5.1c-4.8,0-8.9-1.7-12.2-5.1c-3.3-3.4-5-7.4-5-12.1c0-4.8,1.7-8.9,5-12.3
			C-1783.9,385.6-1779.9,383.9-1775.1,383.9z"/>
	</g>
	<path opacity="0.52" fill="#F4F4F4" d="M-1811.4,653.3c9.2-4,17.6-10.9,25.1-20.7c5.6-7.4,10-15.4,13.1-24.1
		C-1781.6,627.2-1793.9,643.5-1811.4,653.3z"/>
	<path fill="#F4F4F4" d="M-1880.9,428.2c0,0,83.2,67.1,95.7,83.8c12.6,16.7,18.9,37,18.9,60.9c0,23.6-6.3,43.7-19,60.3
		c-12.7,16.7-27.9,25-45.8,25c-2,0-5.8,0-10.6-0.1c-29.3-11.2-46.6-38.6-55.4-68.8V428.2H-1880.9z"/>
	<path fill="#F4F4F4" d="M-1782,428.2c0,0-83.2,67.1-95.7,83.8c-12.6,16.7-18.9,37-18.9,60.9c0,23.6,6.3,43.7,19,60.3
		c12.7,16.7,27.9,25,45.8,25c2,0,5.8,0,10.6-0.1c29.3-11.2,46.6-38.6,55.4-68.8V428.2H-1782z"/>
	<path fill="#202737" d="M-1795.7,615.5c3.8,4.2,5.6,9.1,5.6,14.7c0,5.7-2,10.7-6,15c-4,4.3-9.1,6.4-15.4,6.4
		c-6.2,0-11.4-2.1-15.3-6.4c-4-4.3-6-9.3-6-15c0-5.7,1.9-10.6,5.6-14.8c4.1-4.6,9.4-6.8,15.6-6.8
		C-1805.1,608.6-1799.9,610.9-1795.7,615.5z"/>
	<path fill="#7B838C" d="M-1839.3,611.3c3.8,4.2,5.6,9.1,5.6,14.7c0,5.7-2,10.7-6,15c-4,4.3-9.1,6.4-15.4,6.4
		c-6.2,0-11.4-2.1-15.3-6.4c-4-4.3-6-9.3-6-15c0-5.7,1.9-10.6,5.6-14.8c4.1-4.6,9.4-6.8,15.6-6.8
		C-1848.7,604.4-1843.4,606.7-1839.3,611.3z"/>
	<path fill="#7B838C" d="M-1773.7,577.3c3.8,4.2,5.6,9.1,5.6,14.7c0,5.7-2,10.7-6,15c-4,4.3-9.1,6.4-15.4,6.4
		c-6.2,0-11.4-2.1-15.3-6.4c-4-4.3-6-9.3-6-15c0-5.7,1.9-10.6,5.6-14.8c4.1-4.6,9.4-6.8,15.6-6.8
		C-1783.1,570.5-1777.8,572.8-1773.7,577.3z"/>
	<path fill="#AEB5BF" d="M-1859.6,571.7c3.8,4.2,5.6,9.1,5.6,14.7c0,5.7-2,10.7-6,15c-4,4.3-9.1,6.4-15.4,6.4
		c-6.2,0-11.4-2.1-15.3-6.4c-4-4.3-6-9.3-6-15c0-5.7,1.9-10.6,5.6-14.8c4.1-4.6,9.4-6.8,15.6-6.8
		C-1869,564.8-1863.7,567.1-1859.6,571.7z"/>
	<path fill="#AEB5BF" d="M-1771.7,532.9c3.8,4.2,5.6,9.1,5.6,14.7c0,5.7-2,10.7-6,15c-4,4.3-9.1,6.4-15.4,6.4
		c-6.2,0-11.4-2.1-15.3-6.4c-4-4.3-6-9.3-6-15c0-5.7,1.9-10.6,5.6-14.8c4.1-4.6,9.4-6.8,15.6-6.8
		C-1781.1,526-1775.8,528.3-1771.7,532.9z"/>
</g>
<rect x="-1560.2" y="928.5" fill="none" width="233.6" height="55.3"/>
<text transform="matrix(1 0 0 1 -1560.1671 972.6411)" fill="#FFFFFF" font-family="'CenturyGothic'" font-size="60">bowder</text>
<g>
	<g>
		<path fill="#202737" d="M-641.2,785.6c4.8,0,8.9,1.7,12.2,5.1c3.3,3.4,5,7.5,5,12.3c0,4.7-1.7,8.7-5,12.1
			c-3.3,3.4-7.4,5.1-12.2,5.1c-4.8,0-8.9-1.7-12.2-5.1c-3.3-3.4-5-7.4-5-12.1c0-4.8,1.7-8.9,5-12.3
			C-650,787.3-646,785.6-641.2,785.6z"/>
	</g>
	<path fill="#202737" d="M-800,1016.1h130.9v-1c0.1,0,0.1,0,0.1,0V785.6h-16.2c0,0-24.8,20-49.4,40.9
		c-24.6-20.9-49.4-40.9-49.4-40.9H-800"/>
	<path fill="#F4F4F4" d="M-757.8,974.5c3.2,3.6,4.8,7.8,4.8,12.6c0,4.9-1.7,9.2-5.1,12.8c-3.4,3.7-7.8,5.5-13.2,5.5
		c-5.4,0-9.7-1.8-13.2-5.5c-3.4-3.7-5.1-7.9-5.1-12.8c0-4.9,1.6-9.1,4.8-12.7c3.6-3.9,8-5.9,13.4-5.9
		C-765.8,968.6-761.3,970.5-757.8,974.5z"/>
	<path fill="#AEB5BF" d="M-757.8,937.6c3.2,3.6,4.8,7.8,4.8,12.6c0,4.9-1.7,9.2-5.1,12.8c-3.4,3.7-7.8,5.5-13.2,5.5
		c-5.4,0-9.7-1.8-13.2-5.5c-3.4-3.7-5.1-7.9-5.1-12.8c0-4.9,1.6-9.1,4.8-12.7c3.6-3.9,8-5.9,13.4-5.9
		C-765.8,931.7-761.3,933.6-757.8,937.6z"/>
	<path fill="#AEB5BF" d="M-721.2,974.5c3.2,3.6,4.8,7.8,4.8,12.6c0,4.9-1.7,9.2-5.1,12.8c-3.4,3.7-7.8,5.5-13.2,5.5
		c-5.4,0-9.7-1.8-13.2-5.5c-3.4-3.7-5.1-7.9-5.1-12.8c0-4.9,1.6-9.1,4.8-12.7c3.6-3.9,8-5.9,13.4-5.9
		C-729.2,968.6-724.7,970.5-721.2,974.5z"/>
	<path fill="#7B838C" d="M-757.8,900.7c3.2,3.6,4.8,7.8,4.8,12.6c0,4.9-1.7,9.2-5.1,12.8c-3.4,3.7-7.8,5.5-13.2,5.5
		c-5.4,0-9.7-1.8-13.2-5.5c-3.4-3.7-5.1-7.9-5.1-12.8c0-4.9,1.6-9.1,4.8-12.7c3.6-3.9,8-5.9,13.4-5.9
		C-765.8,894.8-761.3,896.8-757.8,900.7z"/>
	<path fill="#7B838C" d="M-684.6,974.5c3.2,3.6,4.8,7.8,4.8,12.6c0,4.9-1.7,9.2-5.1,12.8c-3.4,3.7-7.8,5.5-13.2,5.5
		c-5.4,0-9.7-1.8-13.2-5.5c-3.4-3.7-5.1-7.9-5.1-12.8c0-4.9,1.6-9.1,4.8-12.7c3.6-3.9,8-5.9,13.4-5.9
		C-692.6,968.6-688.1,970.5-684.6,974.5z"/>
	<text transform="matrix(1 0 0 1 -802.9119 1049.5183)" fill="#202737" font-family="'CenturyGothic'" font-size="34.5">bowder</text>
</g>
<g>
	<g>
		<path fill="#F4F4F4" d="M-904.2,785.5c4.8,0,8.9,1.7,12.2,5.1c3.3,3.4,5,7.5,5,12.3c0,4.7-1.7,8.7-5,12.1
			c-3.3,3.4-7.4,5.1-12.2,5.1c-4.8,0-8.9-1.7-12.2-5.1c-3.3-3.4-5-7.4-5-12.1c0-4.8,1.7-8.9,5-12.3
			C-913,787.2-909,785.5-904.2,785.5z"/>
	</g>
	<path fill="#F4F4F4" d="M-1063,1014.9v1h130.9v-1c0.1,0,0.1,0,0.1,0V785.5h-16.2c0,0-24.8,20-49.4,40.9
		c-24.6-20.9-49.4-40.9-49.4-40.9h-16.2"/>
	<path fill="#202737" d="M-1020.8,971.3c3.2,3.6,4.8,7.8,4.8,12.6c0,4.9-1.7,9.2-5.1,12.8c-3.4,3.7-7.8,5.5-13.2,5.5
		c-5.4,0-9.7-1.8-13.2-5.5c-3.4-3.7-5.1-7.9-5.1-12.8c0-4.9,1.6-9.1,4.8-12.7c3.6-3.9,8-5.9,13.4-5.9
		C-1028.8,965.4-1024.3,967.3-1020.8,971.3z"/>
	<path fill="#7B838C" d="M-1020.8,934.4c3.2,3.6,4.8,7.8,4.8,12.6c0,4.9-1.7,9.2-5.1,12.8c-3.4,3.7-7.8,5.5-13.2,5.5
		c-5.4,0-9.7-1.8-13.2-5.5c-3.4-3.7-5.1-7.9-5.1-12.8c0-4.9,1.6-9.1,4.8-12.7c3.6-3.9,8-5.9,13.4-5.9
		C-1028.8,928.5-1024.3,930.4-1020.8,934.4z"/>
	<path fill="#7B838C" d="M-984.2,971.3c3.2,3.6,4.8,7.8,4.8,12.6c0,4.9-1.7,9.2-5.1,12.8c-3.4,3.7-7.8,5.5-13.2,5.5
		c-5.4,0-9.7-1.8-13.2-5.5c-3.4-3.7-5.1-7.9-5.1-12.8c0-4.9,1.6-9.1,4.8-12.7c3.6-3.9,8-5.9,13.4-5.9
		C-992.2,965.4-987.7,967.3-984.2,971.3z"/>
	<path fill="#AEB5BF" d="M-1020.8,897.5c3.2,3.6,4.8,7.8,4.8,12.6c0,4.9-1.7,9.2-5.1,12.8c-3.4,3.7-7.8,5.5-13.2,5.5
		c-5.4,0-9.7-1.8-13.2-5.5c-3.4-3.7-5.1-7.9-5.1-12.8c0-4.9,1.6-9.1,4.8-12.7c3.6-3.9,8-5.9,13.4-5.9
		C-1028.8,891.6-1024.3,893.6-1020.8,897.5z"/>
	<path fill="#AEB5BF" d="M-947.6,971.3c3.2,3.6,4.8,7.8,4.8,12.6c0,4.9-1.7,9.2-5.1,12.8c-3.4,3.7-7.8,5.5-13.2,5.5
		c-5.4,0-9.7-1.8-13.2-5.5c-3.4-3.7-5.1-7.9-5.1-12.8c0-4.9,1.6-9.1,4.8-12.7c3.6-3.9,8-5.9,13.4-5.9
		C-955.6,965.4-951.1,967.3-947.6,971.3z"/>
	<text transform="matrix(1 0 0 1 -1065.9993 1049.5183)" fill="#FFFFFF" font-family="'CenturyGothic'" font-size="34.5">bowder</text>
</g>
<g>
	<g>
		<path fill="#F4F4F4" d="M158.8-0.2c4.8,0,8.9,1.7,12.2,5.1c3.3,3.4,5,7.5,5,12.3c0,4.7-1.7,8.7-5,12.1c-3.3,3.4-7.4,5.1-12.2,5.1
			s-8.9-1.7-12.2-5.1c-3.3-3.4-5-7.4-5-12.1c0-4.8,1.7-8.9,5-12.3C150,1.5,154-0.2,158.8-0.2z"/>
	</g>
	<path fill="#F4F4F4" d="M0,229.2v1h130.9v-1c0.1,0,0.1,0,0.1,0V-0.2h-16.2c0,0-24.8,20-49.4,40.9C40.9,19.8,16.2-0.2,16.2-0.2H0"/>
	<path fill="#202737" d="M42.2,185.6c3.2,3.6,4.8,7.8,4.8,12.6c0,4.9-1.7,9.2-5.1,12.8c-3.4,3.7-7.8,5.5-13.2,5.5
		c-5.4,0-9.7-1.8-13.2-5.5c-3.4-3.7-5.1-7.9-5.1-12.8c0-4.9,1.6-9.1,4.8-12.7c3.6-3.9,8-5.9,13.4-5.9
		C34.2,179.7,38.7,181.6,42.2,185.6z"/>
	<path fill="#7B838C" d="M42.2,148.7c3.2,3.6,4.8,7.8,4.8,12.6c0,4.9-1.7,9.2-5.1,12.8c-3.4,3.7-7.8,5.5-13.2,5.5
		c-5.4,0-9.7-1.8-13.2-5.5c-3.4-3.7-5.1-7.9-5.1-12.8c0-4.9,1.6-9.1,4.8-12.7c3.6-3.9,8-5.9,13.4-5.9
		C34.2,142.8,38.7,144.8,42.2,148.7z"/>
	<path fill="#7B838C" d="M78.8,185.6c3.2,3.6,4.8,7.8,4.8,12.6c0,4.9-1.7,9.2-5.1,12.8c-3.4,3.7-7.8,5.5-13.2,5.5
		c-5.4,0-9.7-1.8-13.2-5.5c-3.4-3.7-5.1-7.9-5.1-12.8c0-4.9,1.6-9.1,4.8-12.7c3.6-3.9,8-5.9,13.4-5.9
		C70.8,179.7,75.3,181.6,78.8,185.6z"/>
	<path fill="#AEB5BF" d="M42.2,111.8c3.2,3.6,4.8,7.8,4.8,12.6c0,4.9-1.7,9.2-5.1,12.8c-3.4,3.7-7.8,5.5-13.2,5.5
		c-5.4,0-9.7-1.8-13.2-5.5c-3.4-3.7-5.1-7.9-5.1-12.8c0-4.9,1.6-9.1,4.8-12.7c3.6-3.9,8-5.9,13.4-5.9
		C34.2,105.9,38.7,107.9,42.2,111.8z"/>
	<path fill="#AEB5BF" d="M115.4,185.6c3.2,3.6,4.8,7.8,4.8,12.6c0,4.9-1.7,9.2-5.1,12.8c-3.4,3.7-7.8,5.5-13.2,5.5
		c-5.4,0-9.7-1.8-13.2-5.5c-3.4-3.7-5.1-7.9-5.1-12.8c0-4.9,1.6-9.1,4.8-12.7c3.6-3.9,8-5.9,13.4-5.9
		C107.4,179.7,111.9,181.6,115.4,185.6z"/>
	<g>
		<path fill="#F4F4F4" d="M0.7,263.8v-25h2.3v10.1c1-1.2,2.1-2.1,3.3-2.7c1.2-0.6,2.5-0.9,4-0.9c2.6,0,4.7,0.9,6.5,2.8
			c1.8,1.9,2.7,4.1,2.7,6.7c0,2.6-0.9,4.8-2.7,6.7s-4,2.8-6.6,2.8c-1.5,0-2.8-0.3-4-0.9c-1.2-0.6-2.3-1.6-3.2-2.8v3.3H0.7z M10,262
			c1.3,0,2.5-0.3,3.6-1c1.1-0.6,2-1.5,2.6-2.7c0.6-1.2,1-2.4,1-3.7s-0.3-2.5-1-3.7c-0.7-1.2-1.5-2.1-2.6-2.7c-1.1-0.6-2.3-1-3.5-1
			c-1.3,0-2.5,0.3-3.6,1c-1.1,0.6-2,1.5-2.6,2.6c-0.6,1.1-0.9,2.3-0.9,3.7c0,2.1,0.7,3.8,2.1,5.2C6.3,261.3,8,262,10,262z"/>
		<path fill="#F4F4F4" d="M33,245.3c2.8,0,5.1,1,6.9,3c1.7,1.8,2.5,4,2.5,6.5c0,2.5-0.9,4.7-2.6,6.6c-1.8,1.9-4,2.8-6.8,2.8
			c-2.8,0-5-0.9-6.8-2.8c-1.8-1.9-2.6-4.1-2.6-6.6c0-2.5,0.8-4.7,2.5-6.5C27.9,246.3,30.2,245.3,33,245.3z M33,247.6
			c-1.9,0-3.6,0.7-5,2.1c-1.4,1.4-2.1,3.2-2.1,5.2c0,1.3,0.3,2.5,0.9,3.7c0.6,1.1,1.5,2,2.6,2.6c1.1,0.6,2.3,0.9,3.5,0.9
			c1.3,0,2.5-0.3,3.5-0.9c1.1-0.6,1.9-1.5,2.6-2.6c0.6-1.1,0.9-2.3,0.9-3.7c0-2-0.7-3.8-2.1-5.2C36.6,248.3,34.9,247.6,33,247.6z"/>
		<path fill="#F4F4F4" d="M45,245.8h2.4l5.5,13.1l5.8-13.1h0.4l5.8,13.1l5.6-13.1h2.4l-7.8,18.1h-0.4l-5.8-12.9l-5.8,12.9h-0.4
			L45,245.8z"/>
		<path fill="#F4F4F4" d="M94.4,238.8v25h-2.3v-3.1c-1,1.2-2.1,2.1-3.3,2.7c-1.2,0.6-2.5,0.9-4,0.9c-2.6,0-4.7-0.9-6.5-2.8
			c-1.8-1.9-2.7-4.1-2.7-6.8c0-2.6,0.9-4.8,2.7-6.7s4-2.8,6.6-2.8c1.5,0,2.8,0.3,4,0.9c1.2,0.6,2.3,1.6,3.2,2.8v-10.3H94.4z
			 M85.1,247.5c-1.3,0-2.5,0.3-3.6,1c-1.1,0.6-2,1.5-2.6,2.7s-1,2.4-1,3.6c0,1.3,0.3,2.5,1,3.6c0.7,1.2,1.5,2.1,2.6,2.7
			c1.1,0.6,2.3,1,3.5,1c1.3,0,2.5-0.3,3.6-1s2-1.5,2.6-2.6c0.6-1.1,0.9-2.3,0.9-3.7c0-2.1-0.7-3.8-2.1-5.2
			C88.8,248.2,87.1,247.5,85.1,247.5z"/>
		<path fill="#F4F4F4" d="M115.5,257.8l2,1c-0.6,1.3-1.4,2.3-2.2,3.1s-1.8,1.4-2.8,1.8c-1.1,0.4-2.2,0.6-3.6,0.6
			c-2.9,0-5.3-1-6.9-2.9c-1.7-1.9-2.5-4.1-2.5-6.5c0-2.3,0.7-4.3,2.1-6.1c1.8-2.3,4.2-3.4,7.2-3.4c3.1,0,5.5,1.2,7.4,3.5
			c1.3,1.6,2,3.7,2,6.2h-16.3c0,2.1,0.7,3.8,2,5.2c1.3,1.3,2.9,2,4.8,2c0.9,0,1.8-0.2,2.7-0.5s1.6-0.7,2.2-1.3
			C114.1,259.9,114.8,259,115.5,257.8z M115.5,253c-0.3-1.2-0.8-2.2-1.4-3c-0.6-0.7-1.4-1.3-2.4-1.8s-2-0.7-3.1-0.7
			c-1.8,0-3.3,0.6-4.6,1.7c-0.9,0.8-1.6,2.1-2.1,3.7H115.5z"/>
		<path fill="#F4F4F4" d="M122.2,245.8h2.4v2.6c0.7-1,1.5-1.8,2.2-2.3c0.8-0.5,1.6-0.8,2.5-0.8c0.6,0,1.3,0.2,2.1,0.6l-1.2,2
			c-0.5-0.2-0.9-0.3-1.2-0.3c-0.8,0-1.5,0.3-2.2,1c-0.7,0.6-1.3,1.6-1.6,3c-0.3,1-0.4,3.1-0.4,6.2v6.1h-2.4V245.8z"/>
	</g>
</g>
</svg>
